<svg xmlns="http://www.w3.org/2000/svg" xmlns:xlink="http://www.w3.org/1999/xlink" width="500" zoomAndPan="magnify" viewBox="0 0 375 374.999991" height="500" preserveAspectRatio="xMidYMid meet" version="1.0"><defs><g/><clipPath id="d1558873f0"><path d="M 71.054688 70.726562 L 304 70.726562 L 304 154.726562 L 71.054688 154.726562 Z M 71.054688 70.726562 " clip-rule="nonzero"/></clipPath><clipPath id="6fa1dab42b"><path d="M 187.503906 70.726562 C 123.195312 70.726562 71.054688 122.863281 71.054688 187.175781 C 71.054688 251.488281 123.195312 303.625 187.503906 303.625 C 251.816406 303.625 303.953125 251.488281 303.953125 187.175781 C 303.953125 122.863281 251.820312 70.726562 187.503906 70.726562 Z M 187.503906 263.539062 C 145.332031 263.539062 111.140625 229.351562 111.140625 187.175781 C 111.140625 145 145.328125 110.8125 187.503906 110.8125 C 229.679688 110.8125 263.867188 145 263.867188 187.175781 C 263.867188 229.351562 229.675781 263.539062 187.503906 263.539062 Z M 187.503906 263.539062 " clip-rule="nonzero"/></clipPath><linearGradient x1="-0.00000699943" gradientTransform="matrix(0.508708, 0, 0, 0.508708, 71.05611, 70.727658)" y1="228.912" x2="457.81998" gradientUnits="userSpaceOnUse" y2="228.912" id="05cf128a9d"><stop stop-opacity="1" stop-color="rgb(10.198975%, 48.199463%, 23.098755%)" offset="0"/><stop stop-opacity="1" stop-color="rgb(10.374451%, 48.313904%, 23.104858%)" offset="0.0078125"/><stop stop-opacity="1" stop-color="rgb(10.726929%, 48.542786%, 23.118591%)" offset="0.015625"/><stop stop-opacity="1" stop-color="rgb(11.079407%, 48.773193%, 23.130798%)" offset="0.0234375"/><stop stop-opacity="1" stop-color="rgb(11.431885%, 49.002075%, 23.143005%)" offset="0.03125"/><stop stop-opacity="1" stop-color="rgb(11.784363%, 49.232483%, 23.155212%)" offset="0.0390625"/><stop stop-opacity="1" stop-color="rgb(12.136841%, 49.461365%, 23.167419%)" offset="0.046875"/><stop stop-opacity="1" stop-color="rgb(12.489319%, 49.691772%, 23.179626%)" offset="0.0546875"/><stop stop-opacity="1" stop-color="rgb(12.841797%, 49.92218%, 23.193359%)" offset="0.0625"/><stop stop-opacity="1" stop-color="rgb(13.192749%, 50.151062%, 23.205566%)" offset="0.0703125"/><stop stop-opacity="1" stop-color="rgb(13.545227%, 50.38147%, 23.217773%)" offset="0.078125"/><stop stop-opacity="1" stop-color="rgb(13.897705%, 50.610352%, 23.22998%)" offset="0.0859375"/><stop stop-opacity="1" stop-color="rgb(14.250183%, 50.840759%, 23.242188%)" offset="0.09375"/><stop stop-opacity="1" stop-color="rgb(14.602661%, 51.069641%, 23.25592%)" offset="0.101562"/><stop stop-opacity="1" stop-color="rgb(14.955139%, 51.300049%, 23.268127%)" offset="0.109375"/><stop stop-opacity="1" stop-color="rgb(15.307617%, 51.528931%, 23.280334%)" offset="0.117187"/><stop stop-opacity="1" stop-color="rgb(15.660095%, 51.759338%, 23.292542%)" offset="0.125"/><stop stop-opacity="1" stop-color="rgb(16.012573%, 51.98822%, 23.304749%)" offset="0.132812"/><stop stop-opacity="1" stop-color="rgb(16.365051%, 52.218628%, 23.318481%)" offset="0.140625"/><stop stop-opacity="1" stop-color="rgb(16.717529%, 52.44751%, 23.330688%)" offset="0.148438"/><stop stop-opacity="1" stop-color="rgb(17.068481%, 52.677917%, 23.342896%)" offset="0.15625"/><stop stop-opacity="1" stop-color="rgb(17.420959%, 52.906799%, 23.355103%)" offset="0.164062"/><stop stop-opacity="1" stop-color="rgb(17.773438%, 53.137207%, 23.36731%)" offset="0.171875"/><stop stop-opacity="1" stop-color="rgb(18.125916%, 53.366089%, 23.381042%)" offset="0.179688"/><stop stop-opacity="1" stop-color="rgb(18.478394%, 53.596497%, 23.39325%)" offset="0.1875"/><stop stop-opacity="1" stop-color="rgb(18.830872%, 53.825378%, 23.405457%)" offset="0.195313"/><stop stop-opacity="1" stop-color="rgb(19.18335%, 54.055786%, 23.417664%)" offset="0.203125"/><stop stop-opacity="1" stop-color="rgb(19.535828%, 54.286194%, 23.429871%)" offset="0.210938"/><stop stop-opacity="1" stop-color="rgb(19.888306%, 54.515076%, 23.442078%)" offset="0.21875"/><stop stop-opacity="1" stop-color="rgb(20.240784%, 54.745483%, 23.455811%)" offset="0.226562"/><stop stop-opacity="1" stop-color="rgb(20.593262%, 54.974365%, 23.468018%)" offset="0.234375"/><stop stop-opacity="1" stop-color="rgb(20.944214%, 55.204773%, 23.480225%)" offset="0.242187"/><stop stop-opacity="1" stop-color="rgb(21.296692%, 55.433655%, 23.492432%)" offset="0.25"/><stop stop-opacity="1" stop-color="rgb(21.64917%, 55.664062%, 23.504639%)" offset="0.257812"/><stop stop-opacity="1" stop-color="rgb(22.001648%, 55.892944%, 23.518372%)" offset="0.265625"/><stop stop-opacity="1" stop-color="rgb(22.354126%, 56.123352%, 23.530579%)" offset="0.273438"/><stop stop-opacity="1" stop-color="rgb(22.706604%, 56.352234%, 23.542786%)" offset="0.28125"/><stop stop-opacity="1" stop-color="rgb(23.059082%, 56.582642%, 23.554993%)" offset="0.289063"/><stop stop-opacity="1" stop-color="rgb(23.41156%, 56.811523%, 23.5672%)" offset="0.296875"/><stop stop-opacity="1" stop-color="rgb(23.764038%, 57.041931%, 23.580933%)" offset="0.304688"/><stop stop-opacity="1" stop-color="rgb(24.116516%, 57.270813%, 23.59314%)" offset="0.3125"/><stop stop-opacity="1" stop-color="rgb(24.468994%, 57.501221%, 23.605347%)" offset="0.320312"/><stop stop-opacity="1" stop-color="rgb(24.821472%, 57.730103%, 23.617554%)" offset="0.328125"/><stop stop-opacity="1" stop-color="rgb(25.172424%, 57.96051%, 23.629761%)" offset="0.335938"/><stop stop-opacity="1" stop-color="rgb(25.524902%, 58.190918%, 23.643494%)" offset="0.34375"/><stop stop-opacity="1" stop-color="rgb(25.87738%, 58.4198%, 23.655701%)" offset="0.351562"/><stop stop-opacity="1" stop-color="rgb(26.229858%, 58.650208%, 23.667908%)" offset="0.359375"/><stop stop-opacity="1" stop-color="rgb(26.582336%, 58.879089%, 23.680115%)" offset="0.367187"/><stop stop-opacity="1" stop-color="rgb(26.934814%, 59.109497%, 23.692322%)" offset="0.375"/><stop stop-opacity="1" stop-color="rgb(27.287292%, 59.338379%, 23.706055%)" offset="0.382813"/><stop stop-opacity="1" stop-color="rgb(27.639771%, 59.568787%, 23.718262%)" offset="0.390625"/><stop stop-opacity="1" stop-color="rgb(27.992249%, 59.797668%, 23.730469%)" offset="0.398438"/><stop stop-opacity="1" stop-color="rgb(28.344727%, 60.028076%, 23.742676%)" offset="0.40625"/><stop stop-opacity="1" stop-color="rgb(28.697205%, 60.256958%, 23.754883%)" offset="0.414063"/><stop stop-opacity="1" stop-color="rgb(29.048157%, 60.487366%, 23.76709%)" offset="0.421875"/><stop stop-opacity="1" stop-color="rgb(29.400635%, 60.716248%, 23.780823%)" offset="0.429688"/><stop stop-opacity="1" stop-color="rgb(29.753113%, 60.946655%, 23.79303%)" offset="0.4375"/><stop stop-opacity="1" stop-color="rgb(30.105591%, 61.175537%, 23.805237%)" offset="0.445312"/><stop stop-opacity="1" stop-color="rgb(30.458069%, 61.405945%, 23.817444%)" offset="0.453125"/><stop stop-opacity="1" stop-color="rgb(30.810547%, 61.634827%, 23.829651%)" offset="0.460938"/><stop stop-opacity="1" stop-color="rgb(31.163025%, 61.865234%, 23.843384%)" offset="0.46875"/><stop stop-opacity="1" stop-color="rgb(31.515503%, 62.094116%, 23.855591%)" offset="0.476562"/><stop stop-opacity="1" stop-color="rgb(31.867981%, 62.324524%, 23.867798%)" offset="0.484375"/><stop stop-opacity="1" stop-color="rgb(32.220459%, 62.554932%, 23.880005%)" offset="0.492187"/><stop stop-opacity="1" stop-color="rgb(32.572937%, 62.783813%, 23.892212%)" offset="0.5"/><stop stop-opacity="1" stop-color="rgb(32.923889%, 63.014221%, 23.905945%)" offset="0.507812"/><stop stop-opacity="1" stop-color="rgb(33.276367%, 63.243103%, 23.918152%)" offset="0.515625"/><stop stop-opacity="1" stop-color="rgb(33.628845%, 63.473511%, 23.930359%)" offset="0.523438"/><stop stop-opacity="1" stop-color="rgb(33.981323%, 63.702393%, 23.942566%)" offset="0.53125"/><stop stop-opacity="1" stop-color="rgb(34.333801%, 63.9328%, 23.954773%)" offset="0.539062"/><stop stop-opacity="1" stop-color="rgb(34.686279%, 64.161682%, 23.968506%)" offset="0.546875"/><stop stop-opacity="1" stop-color="rgb(35.038757%, 64.39209%, 23.980713%)" offset="0.554688"/><stop stop-opacity="1" stop-color="rgb(35.391235%, 64.620972%, 23.99292%)" offset="0.5625"/><stop stop-opacity="1" stop-color="rgb(35.743713%, 64.851379%, 24.005127%)" offset="0.570312"/><stop stop-opacity="1" stop-color="rgb(36.096191%, 65.080261%, 24.017334%)" offset="0.578125"/><stop stop-opacity="1" stop-color="rgb(36.448669%, 65.310669%, 24.031067%)" offset="0.585938"/><stop stop-opacity="1" stop-color="rgb(36.799622%, 65.539551%, 24.043274%)" offset="0.59375"/><stop stop-opacity="1" stop-color="rgb(37.1521%, 65.769958%, 24.055481%)" offset="0.601562"/><stop stop-opacity="1" stop-color="rgb(37.504578%, 65.99884%, 24.067688%)" offset="0.609375"/><stop stop-opacity="1" stop-color="rgb(37.857056%, 66.229248%, 24.079895%)" offset="0.617187"/><stop stop-opacity="1" stop-color="rgb(38.209534%, 66.45813%, 24.092102%)" offset="0.625"/><stop stop-opacity="1" stop-color="rgb(38.562012%, 66.688538%, 24.105835%)" offset="0.632813"/><stop stop-opacity="1" stop-color="rgb(38.91449%, 66.918945%, 24.118042%)" offset="0.640625"/><stop stop-opacity="1" stop-color="rgb(39.266968%, 67.147827%, 24.130249%)" offset="0.648438"/><stop stop-opacity="1" stop-color="rgb(39.619446%, 67.378235%, 24.142456%)" offset="0.65625"/><stop stop-opacity="1" stop-color="rgb(39.971924%, 67.607117%, 24.154663%)" offset="0.664063"/><stop stop-opacity="1" stop-color="rgb(40.324402%, 67.837524%, 24.168396%)" offset="0.671875"/><stop stop-opacity="1" stop-color="rgb(40.675354%, 68.066406%, 24.180603%)" offset="0.679688"/><stop stop-opacity="1" stop-color="rgb(41.027832%, 68.296814%, 24.19281%)" offset="0.6875"/><stop stop-opacity="1" stop-color="rgb(41.38031%, 68.525696%, 24.205017%)" offset="0.695313"/><stop stop-opacity="1" stop-color="rgb(41.732788%, 68.756104%, 24.217224%)" offset="0.703125"/><stop stop-opacity="1" stop-color="rgb(42.085266%, 68.984985%, 24.230957%)" offset="0.710938"/><stop stop-opacity="1" stop-color="rgb(42.437744%, 69.215393%, 24.243164%)" offset="0.71875"/><stop stop-opacity="1" stop-color="rgb(42.790222%, 69.444275%, 24.255371%)" offset="0.726562"/><stop stop-opacity="1" stop-color="rgb(43.1427%, 69.674683%, 24.267578%)" offset="0.734375"/><stop stop-opacity="1" stop-color="rgb(43.495178%, 69.903564%, 24.279785%)" offset="0.742188"/><stop stop-opacity="1" stop-color="rgb(43.847656%, 70.133972%, 24.293518%)" offset="0.75"/><stop stop-opacity="1" stop-color="rgb(44.200134%, 70.362854%, 24.305725%)" offset="0.757812"/><stop stop-opacity="1" stop-color="rgb(44.551086%, 70.593262%, 24.317932%)" offset="0.765625"/><stop stop-opacity="1" stop-color="rgb(44.903564%, 70.822144%, 24.330139%)" offset="0.773438"/><stop stop-opacity="1" stop-color="rgb(45.256042%, 71.052551%, 24.342346%)" offset="0.78125"/><stop stop-opacity="1" stop-color="rgb(45.608521%, 71.282959%, 24.356079%)" offset="0.789062"/><stop stop-opacity="1" stop-color="rgb(45.960999%, 71.511841%, 24.368286%)" offset="0.796875"/><stop stop-opacity="1" stop-color="rgb(46.313477%, 71.742249%, 24.380493%)" offset="0.804688"/><stop stop-opacity="1" stop-color="rgb(46.665955%, 71.97113%, 24.3927%)" offset="0.8125"/><stop stop-opacity="1" stop-color="rgb(47.018433%, 72.201538%, 24.404907%)" offset="0.820312"/><stop stop-opacity="1" stop-color="rgb(47.370911%, 72.43042%, 24.417114%)" offset="0.828125"/><stop stop-opacity="1" stop-color="rgb(47.723389%, 72.660828%, 24.430847%)" offset="0.835937"/><stop stop-opacity="1" stop-color="rgb(48.075867%, 72.889709%, 24.443054%)" offset="0.84375"/><stop stop-opacity="1" stop-color="rgb(48.428345%, 73.120117%, 24.455261%)" offset="0.851562"/><stop stop-opacity="1" stop-color="rgb(48.779297%, 73.348999%, 24.467468%)" offset="0.859375"/><stop stop-opacity="1" stop-color="rgb(49.131775%, 73.579407%, 24.479675%)" offset="0.867187"/><stop stop-opacity="1" stop-color="rgb(49.484253%, 73.808289%, 24.493408%)" offset="0.875"/><stop stop-opacity="1" stop-color="rgb(49.836731%, 74.038696%, 24.505615%)" offset="0.882813"/><stop stop-opacity="1" stop-color="rgb(50.189209%, 74.267578%, 24.517822%)" offset="0.890625"/><stop stop-opacity="1" stop-color="rgb(50.541687%, 74.497986%, 24.530029%)" offset="0.898438"/><stop stop-opacity="1" stop-color="rgb(50.894165%, 74.726868%, 24.542236%)" offset="0.90625"/><stop stop-opacity="1" stop-color="rgb(51.246643%, 74.957275%, 24.555969%)" offset="0.914063"/><stop stop-opacity="1" stop-color="rgb(51.599121%, 75.187683%, 24.568176%)" offset="0.921875"/><stop stop-opacity="1" stop-color="rgb(51.951599%, 75.416565%, 24.580383%)" offset="0.929688"/><stop stop-opacity="1" stop-color="rgb(52.304077%, 75.646973%, 24.59259%)" offset="0.9375"/><stop stop-opacity="1" stop-color="rgb(52.655029%, 75.875854%, 24.604797%)" offset="0.945312"/><stop stop-opacity="1" stop-color="rgb(53.007507%, 76.106262%, 24.61853%)" offset="0.953125"/><stop stop-opacity="1" stop-color="rgb(53.359985%, 76.335144%, 24.630737%)" offset="0.960938"/><stop stop-opacity="1" stop-color="rgb(53.712463%, 76.565552%, 24.642944%)" offset="0.96875"/><stop stop-opacity="1" stop-color="rgb(54.064941%, 76.794434%, 24.655151%)" offset="0.976562"/><stop stop-opacity="1" stop-color="rgb(54.417419%, 77.024841%, 24.667358%)" offset="0.984375"/><stop stop-opacity="1" stop-color="rgb(54.769897%, 77.253723%, 24.681091%)" offset="0.992188"/><stop stop-opacity="1" stop-color="rgb(55.122375%, 77.484131%, 24.693298%)" offset="1"/></linearGradient><clipPath id="6e99dc8d7d"><path d="M 71.054688 220.113281 L 304 220.113281 L 304 304.113281 L 71.054688 304.113281 Z M 71.054688 220.113281 " clip-rule="nonzero"/></clipPath><clipPath id="f3d6380b8b"><path d="M 187.503906 304.265625 C 123.195312 304.265625 71.054688 252.128906 71.054688 187.820312 C 71.054688 123.507812 123.195312 71.371094 187.503906 71.371094 C 251.816406 71.371094 303.953125 123.507812 303.953125 187.820312 C 303.953125 252.128906 251.820312 304.265625 187.503906 304.265625 Z M 187.503906 111.457031 C 145.332031 111.457031 111.140625 145.640625 111.140625 187.820312 C 111.140625 229.996094 145.328125 264.179688 187.503906 264.179688 C 229.679688 264.179688 263.867188 229.996094 263.867188 187.820312 C 263.867188 145.640625 229.675781 111.457031 187.503906 111.457031 Z M 187.503906 111.457031 " clip-rule="nonzero"/></clipPath><linearGradient x1="-0.00000699943" gradientTransform="matrix(0.508708, 0, 0, -0.508708, 71.05611, 304.267085)" y1="228.912" x2="457.81998" gradientUnits="userSpaceOnUse" y2="228.912" id="d8fdd6e8fc"><stop stop-opacity="1" stop-color="rgb(10.198975%, 48.199463%, 23.098755%)" offset="0"/><stop stop-opacity="1" stop-color="rgb(10.374451%, 48.313904%, 23.104858%)" offset="0.0078125"/><stop stop-opacity="1" stop-color="rgb(10.726929%, 48.542786%, 23.118591%)" offset="0.015625"/><stop stop-opacity="1" stop-color="rgb(11.079407%, 48.773193%, 23.130798%)" offset="0.0234375"/><stop stop-opacity="1" stop-color="rgb(11.431885%, 49.002075%, 23.143005%)" offset="0.03125"/><stop stop-opacity="1" stop-color="rgb(11.784363%, 49.232483%, 23.155212%)" offset="0.0390625"/><stop stop-opacity="1" stop-color="rgb(12.136841%, 49.461365%, 23.167419%)" offset="0.046875"/><stop stop-opacity="1" stop-color="rgb(12.489319%, 49.691772%, 23.179626%)" offset="0.0546875"/><stop stop-opacity="1" stop-color="rgb(12.841797%, 49.92218%, 23.193359%)" offset="0.0625"/><stop stop-opacity="1" stop-color="rgb(13.192749%, 50.151062%, 23.205566%)" offset="0.0703125"/><stop stop-opacity="1" stop-color="rgb(13.545227%, 50.38147%, 23.217773%)" offset="0.078125"/><stop stop-opacity="1" stop-color="rgb(13.897705%, 50.610352%, 23.22998%)" offset="0.0859375"/><stop stop-opacity="1" stop-color="rgb(14.250183%, 50.840759%, 23.242188%)" offset="0.09375"/><stop stop-opacity="1" stop-color="rgb(14.602661%, 51.069641%, 23.25592%)" offset="0.101562"/><stop stop-opacity="1" stop-color="rgb(14.955139%, 51.300049%, 23.268127%)" offset="0.109375"/><stop stop-opacity="1" stop-color="rgb(15.307617%, 51.528931%, 23.280334%)" offset="0.117187"/><stop stop-opacity="1" stop-color="rgb(15.660095%, 51.759338%, 23.292542%)" offset="0.125"/><stop stop-opacity="1" stop-color="rgb(16.012573%, 51.98822%, 23.304749%)" offset="0.132812"/><stop stop-opacity="1" stop-color="rgb(16.365051%, 52.218628%, 23.318481%)" offset="0.140625"/><stop stop-opacity="1" stop-color="rgb(16.717529%, 52.44751%, 23.330688%)" offset="0.148438"/><stop stop-opacity="1" stop-color="rgb(17.068481%, 52.677917%, 23.342896%)" offset="0.15625"/><stop stop-opacity="1" stop-color="rgb(17.420959%, 52.906799%, 23.355103%)" offset="0.164062"/><stop stop-opacity="1" stop-color="rgb(17.773438%, 53.137207%, 23.36731%)" offset="0.171875"/><stop stop-opacity="1" stop-color="rgb(18.125916%, 53.366089%, 23.381042%)" offset="0.179688"/><stop stop-opacity="1" stop-color="rgb(18.478394%, 53.596497%, 23.39325%)" offset="0.1875"/><stop stop-opacity="1" stop-color="rgb(18.830872%, 53.825378%, 23.405457%)" offset="0.195313"/><stop stop-opacity="1" stop-color="rgb(19.18335%, 54.055786%, 23.417664%)" offset="0.203125"/><stop stop-opacity="1" stop-color="rgb(19.535828%, 54.286194%, 23.429871%)" offset="0.210938"/><stop stop-opacity="1" stop-color="rgb(19.888306%, 54.515076%, 23.442078%)" offset="0.21875"/><stop stop-opacity="1" stop-color="rgb(20.240784%, 54.745483%, 23.455811%)" offset="0.226562"/><stop stop-opacity="1" stop-color="rgb(20.593262%, 54.974365%, 23.468018%)" offset="0.234375"/><stop stop-opacity="1" stop-color="rgb(20.944214%, 55.204773%, 23.480225%)" offset="0.242187"/><stop stop-opacity="1" stop-color="rgb(21.296692%, 55.433655%, 23.492432%)" offset="0.25"/><stop stop-opacity="1" stop-color="rgb(21.64917%, 55.664062%, 23.504639%)" offset="0.257812"/><stop stop-opacity="1" stop-color="rgb(22.001648%, 55.892944%, 23.518372%)" offset="0.265625"/><stop stop-opacity="1" stop-color="rgb(22.354126%, 56.123352%, 23.530579%)" offset="0.273438"/><stop stop-opacity="1" stop-color="rgb(22.706604%, 56.352234%, 23.542786%)" offset="0.28125"/><stop stop-opacity="1" stop-color="rgb(23.059082%, 56.582642%, 23.554993%)" offset="0.289063"/><stop stop-opacity="1" stop-color="rgb(23.41156%, 56.811523%, 23.5672%)" offset="0.296875"/><stop stop-opacity="1" stop-color="rgb(23.764038%, 57.041931%, 23.580933%)" offset="0.304688"/><stop stop-opacity="1" stop-color="rgb(24.116516%, 57.270813%, 23.59314%)" offset="0.3125"/><stop stop-opacity="1" stop-color="rgb(24.468994%, 57.501221%, 23.605347%)" offset="0.320312"/><stop stop-opacity="1" stop-color="rgb(24.821472%, 57.730103%, 23.617554%)" offset="0.328125"/><stop stop-opacity="1" stop-color="rgb(25.172424%, 57.96051%, 23.629761%)" offset="0.335938"/><stop stop-opacity="1" stop-color="rgb(25.524902%, 58.190918%, 23.643494%)" offset="0.34375"/><stop stop-opacity="1" stop-color="rgb(25.87738%, 58.4198%, 23.655701%)" offset="0.351562"/><stop stop-opacity="1" stop-color="rgb(26.229858%, 58.650208%, 23.667908%)" offset="0.359375"/><stop stop-opacity="1" stop-color="rgb(26.582336%, 58.879089%, 23.680115%)" offset="0.367187"/><stop stop-opacity="1" stop-color="rgb(26.934814%, 59.109497%, 23.692322%)" offset="0.375"/><stop stop-opacity="1" stop-color="rgb(27.287292%, 59.338379%, 23.706055%)" offset="0.382813"/><stop stop-opacity="1" stop-color="rgb(27.639771%, 59.568787%, 23.718262%)" offset="0.390625"/><stop stop-opacity="1" stop-color="rgb(27.992249%, 59.797668%, 23.730469%)" offset="0.398438"/><stop stop-opacity="1" stop-color="rgb(28.344727%, 60.028076%, 23.742676%)" offset="0.40625"/><stop stop-opacity="1" stop-color="rgb(28.697205%, 60.256958%, 23.754883%)" offset="0.414063"/><stop stop-opacity="1" stop-color="rgb(29.048157%, 60.487366%, 23.76709%)" offset="0.421875"/><stop stop-opacity="1" stop-color="rgb(29.400635%, 60.716248%, 23.780823%)" offset="0.429688"/><stop stop-opacity="1" stop-color="rgb(29.753113%, 60.946655%, 23.79303%)" offset="0.4375"/><stop stop-opacity="1" stop-color="rgb(30.105591%, 61.175537%, 23.805237%)" offset="0.445312"/><stop stop-opacity="1" stop-color="rgb(30.458069%, 61.405945%, 23.817444%)" offset="0.453125"/><stop stop-opacity="1" stop-color="rgb(30.810547%, 61.634827%, 23.829651%)" offset="0.460938"/><stop stop-opacity="1" stop-color="rgb(31.163025%, 61.865234%, 23.843384%)" offset="0.46875"/><stop stop-opacity="1" stop-color="rgb(31.515503%, 62.094116%, 23.855591%)" offset="0.476562"/><stop stop-opacity="1" stop-color="rgb(31.867981%, 62.324524%, 23.867798%)" offset="0.484375"/><stop stop-opacity="1" stop-color="rgb(32.220459%, 62.554932%, 23.880005%)" offset="0.492187"/><stop stop-opacity="1" stop-color="rgb(32.572937%, 62.783813%, 23.892212%)" offset="0.5"/><stop stop-opacity="1" stop-color="rgb(32.923889%, 63.014221%, 23.905945%)" offset="0.507812"/><stop stop-opacity="1" stop-color="rgb(33.276367%, 63.243103%, 23.918152%)" offset="0.515625"/><stop stop-opacity="1" stop-color="rgb(33.628845%, 63.473511%, 23.930359%)" offset="0.523438"/><stop stop-opacity="1" stop-color="rgb(33.981323%, 63.702393%, 23.942566%)" offset="0.53125"/><stop stop-opacity="1" stop-color="rgb(34.333801%, 63.9328%, 23.954773%)" offset="0.539062"/><stop stop-opacity="1" stop-color="rgb(34.686279%, 64.161682%, 23.968506%)" offset="0.546875"/><stop stop-opacity="1" stop-color="rgb(35.038757%, 64.39209%, 23.980713%)" offset="0.554688"/><stop stop-opacity="1" stop-color="rgb(35.391235%, 64.620972%, 23.99292%)" offset="0.5625"/><stop stop-opacity="1" stop-color="rgb(35.743713%, 64.851379%, 24.005127%)" offset="0.570312"/><stop stop-opacity="1" stop-color="rgb(36.096191%, 65.080261%, 24.017334%)" offset="0.578125"/><stop stop-opacity="1" stop-color="rgb(36.448669%, 65.310669%, 24.031067%)" offset="0.585938"/><stop stop-opacity="1" stop-color="rgb(36.799622%, 65.539551%, 24.043274%)" offset="0.59375"/><stop stop-opacity="1" stop-color="rgb(37.1521%, 65.769958%, 24.055481%)" offset="0.601562"/><stop stop-opacity="1" stop-color="rgb(37.504578%, 65.99884%, 24.067688%)" offset="0.609375"/><stop stop-opacity="1" stop-color="rgb(37.857056%, 66.229248%, 24.079895%)" offset="0.617187"/><stop stop-opacity="1" stop-color="rgb(38.209534%, 66.45813%, 24.092102%)" offset="0.625"/><stop stop-opacity="1" stop-color="rgb(38.562012%, 66.688538%, 24.105835%)" offset="0.632813"/><stop stop-opacity="1" stop-color="rgb(38.91449%, 66.918945%, 24.118042%)" offset="0.640625"/><stop stop-opacity="1" stop-color="rgb(39.266968%, 67.147827%, 24.130249%)" offset="0.648438"/><stop stop-opacity="1" stop-color="rgb(39.619446%, 67.378235%, 24.142456%)" offset="0.65625"/><stop stop-opacity="1" stop-color="rgb(39.971924%, 67.607117%, 24.154663%)" offset="0.664063"/><stop stop-opacity="1" stop-color="rgb(40.324402%, 67.837524%, 24.168396%)" offset="0.671875"/><stop stop-opacity="1" stop-color="rgb(40.675354%, 68.066406%, 24.180603%)" offset="0.679688"/><stop stop-opacity="1" stop-color="rgb(41.027832%, 68.296814%, 24.19281%)" offset="0.6875"/><stop stop-opacity="1" stop-color="rgb(41.38031%, 68.525696%, 24.205017%)" offset="0.695313"/><stop stop-opacity="1" stop-color="rgb(41.732788%, 68.756104%, 24.217224%)" offset="0.703125"/><stop stop-opacity="1" stop-color="rgb(42.085266%, 68.984985%, 24.230957%)" offset="0.710938"/><stop stop-opacity="1" stop-color="rgb(42.437744%, 69.215393%, 24.243164%)" offset="0.71875"/><stop stop-opacity="1" stop-color="rgb(42.790222%, 69.444275%, 24.255371%)" offset="0.726562"/><stop stop-opacity="1" stop-color="rgb(43.1427%, 69.674683%, 24.267578%)" offset="0.734375"/><stop stop-opacity="1" stop-color="rgb(43.495178%, 69.903564%, 24.279785%)" offset="0.742188"/><stop stop-opacity="1" stop-color="rgb(43.847656%, 70.133972%, 24.293518%)" offset="0.75"/><stop stop-opacity="1" stop-color="rgb(44.200134%, 70.362854%, 24.305725%)" offset="0.757812"/><stop stop-opacity="1" stop-color="rgb(44.551086%, 70.593262%, 24.317932%)" offset="0.765625"/><stop stop-opacity="1" stop-color="rgb(44.903564%, 70.822144%, 24.330139%)" offset="0.773438"/><stop stop-opacity="1" stop-color="rgb(45.256042%, 71.052551%, 24.342346%)" offset="0.78125"/><stop stop-opacity="1" stop-color="rgb(45.608521%, 71.282959%, 24.356079%)" offset="0.789062"/><stop stop-opacity="1" stop-color="rgb(45.960999%, 71.511841%, 24.368286%)" offset="0.796875"/><stop stop-opacity="1" stop-color="rgb(46.313477%, 71.742249%, 24.380493%)" offset="0.804688"/><stop stop-opacity="1" stop-color="rgb(46.665955%, 71.97113%, 24.3927%)" offset="0.8125"/><stop stop-opacity="1" stop-color="rgb(47.018433%, 72.201538%, 24.404907%)" offset="0.820312"/><stop stop-opacity="1" stop-color="rgb(47.370911%, 72.43042%, 24.417114%)" offset="0.828125"/><stop stop-opacity="1" stop-color="rgb(47.723389%, 72.660828%, 24.430847%)" offset="0.835937"/><stop stop-opacity="1" stop-color="rgb(48.075867%, 72.889709%, 24.443054%)" offset="0.84375"/><stop stop-opacity="1" stop-color="rgb(48.428345%, 73.120117%, 24.455261%)" offset="0.851562"/><stop stop-opacity="1" stop-color="rgb(48.779297%, 73.348999%, 24.467468%)" offset="0.859375"/><stop stop-opacity="1" stop-color="rgb(49.131775%, 73.579407%, 24.479675%)" offset="0.867187"/><stop stop-opacity="1" stop-color="rgb(49.484253%, 73.808289%, 24.493408%)" offset="0.875"/><stop stop-opacity="1" stop-color="rgb(49.836731%, 74.038696%, 24.505615%)" offset="0.882813"/><stop stop-opacity="1" stop-color="rgb(50.189209%, 74.267578%, 24.517822%)" offset="0.890625"/><stop stop-opacity="1" stop-color="rgb(50.541687%, 74.497986%, 24.530029%)" offset="0.898438"/><stop stop-opacity="1" stop-color="rgb(50.894165%, 74.726868%, 24.542236%)" offset="0.90625"/><stop stop-opacity="1" stop-color="rgb(51.246643%, 74.957275%, 24.555969%)" offset="0.914063"/><stop stop-opacity="1" stop-color="rgb(51.599121%, 75.187683%, 24.568176%)" offset="0.921875"/><stop stop-opacity="1" stop-color="rgb(51.951599%, 75.416565%, 24.580383%)" offset="0.929688"/><stop stop-opacity="1" stop-color="rgb(52.304077%, 75.646973%, 24.59259%)" offset="0.9375"/><stop stop-opacity="1" stop-color="rgb(52.655029%, 75.875854%, 24.604797%)" offset="0.945312"/><stop stop-opacity="1" stop-color="rgb(53.007507%, 76.106262%, 24.61853%)" offset="0.953125"/><stop stop-opacity="1" stop-color="rgb(53.359985%, 76.335144%, 24.630737%)" offset="0.960938"/><stop stop-opacity="1" stop-color="rgb(53.712463%, 76.565552%, 24.642944%)" offset="0.96875"/><stop stop-opacity="1" stop-color="rgb(54.064941%, 76.794434%, 24.655151%)" offset="0.976562"/><stop stop-opacity="1" stop-color="rgb(54.417419%, 77.024841%, 24.667358%)" offset="0.984375"/><stop stop-opacity="1" stop-color="rgb(54.769897%, 77.253723%, 24.681091%)" offset="0.992188"/><stop stop-opacity="1" stop-color="rgb(55.122375%, 77.484131%, 24.693298%)" offset="1"/></linearGradient><clipPath id="374064cde8"><path d="M 148 224 L 166 224 L 166 241 L 148 241 Z M 148 224 " clip-rule="nonzero"/></clipPath><clipPath id="647faa7e61"><path d="M 148.605469 224.136719 L 165.101562 224.511719 L 164.742188 240.257812 L 148.25 239.882812 Z M 148.605469 224.136719 " clip-rule="nonzero"/></clipPath><clipPath id="ec31ac0e20"><path d="M 148.605469 224.136719 L 165.101562 224.511719 L 164.742188 240.257812 L 148.25 239.882812 Z M 148.605469 224.136719 " clip-rule="nonzero"/></clipPath><clipPath id="6a49145311"><path d="M 152 130 L 223 130 L 223 159 L 152 159 Z M 152 130 " clip-rule="nonzero"/></clipPath><clipPath id="fd28dde3d4"><path d="M 152.222656 127.894531 L 222.722656 127.753906 L 222.792969 162.253906 L 152.292969 162.394531 Z M 152.222656 127.894531 " clip-rule="nonzero"/></clipPath><clipPath id="416f6aadb7"><path d="M 152.222656 127.894531 L 222.722656 127.753906 L 222.792969 162.253906 L 152.292969 162.394531 Z M 152.222656 127.894531 " clip-rule="nonzero"/></clipPath><clipPath id="bf230eb45c"><path d="M 179 224 L 196 224 L 196 241 L 179 241 Z M 179 224 " clip-rule="nonzero"/></clipPath><clipPath id="1cfc729234"><path d="M 179.332031 224.136719 L 195.828125 224.511719 L 195.46875 240.257812 L 178.972656 239.882812 Z M 179.332031 224.136719 " clip-rule="nonzero"/></clipPath><clipPath id="7ecb2aa8ab"><path d="M 179.332031 224.136719 L 195.828125 224.511719 L 195.46875 240.257812 L 178.972656 239.882812 Z M 179.332031 224.136719 " clip-rule="nonzero"/></clipPath><clipPath id="c5d7406568"><path d="M 210 224 L 227 224 L 227 241 L 210 241 Z M 210 224 " clip-rule="nonzero"/></clipPath><clipPath id="779dcb6aaa"><path d="M 210.363281 224.136719 L 226.859375 224.511719 L 226.5 240.257812 L 210.003906 239.882812 Z M 210.363281 224.136719 " clip-rule="nonzero"/></clipPath><clipPath id="424598ca6c"><path d="M 210.363281 224.136719 L 226.859375 224.511719 L 226.5 240.257812 L 210.003906 239.882812 Z M 210.363281 224.136719 " clip-rule="nonzero"/></clipPath></defs><g clip-path="url(#d1558873f0)"><g clip-path="url(#6fa1dab42b)"><path fill="url(#05cf128a9d)" d="M 71.054688 70.726562 L 71.054688 154.726562 L 303.953125 154.726562 L 303.953125 70.726562 Z M 71.054688 70.726562 " fill-rule="nonzero"/></g></g><path stroke-linecap="butt" transform="matrix(0.75, 0.000000000000000202, -0.000000000000000202, 0.75, 39.350184, 153.38526)" fill="none" stroke-linejoin="miter" d="M 0.00183833 1.001946 L 105.533095 1.001946 " stroke="#1a7b3b" stroke-width="2" stroke-opacity="1" stroke-miterlimit="4"/><g clip-path="url(#6e99dc8d7d)"><g clip-path="url(#f3d6380b8b)"><path fill="url(#d8fdd6e8fc)" d="M 71.054688 304.113281 L 71.054688 220.113281 L 303.953125 220.113281 L 303.953125 304.113281 Z M 71.054688 304.113281 " fill-rule="nonzero"/></g></g><g fill="#ffffff" fill-opacity="1"><g transform="translate(104.289323, 243.979874)"><g><path d="M 9.5 2.140625 C 8.726562 2.671875 7.953125 2.816406 7.171875 2.578125 C 6.390625 2.335938 5.65625 1.722656 4.96875 0.734375 L 4.34375 -0.15625 L 1.34375 1.9375 L 0.734375 1.046875 L 8.375 -4.265625 L 9.75 -2.28125 C 11.070312 -0.375 10.988281 1.097656 9.5 2.140625 Z M 5.109375 -0.671875 L 5.671875 0.125 C 6.210938 0.90625 6.734375 1.382812 7.234375 1.5625 C 7.734375 1.738281 8.257812 1.628906 8.8125 1.234375 C 9.320312 0.890625 9.582031 0.46875 9.59375 -0.03125 C 9.613281 -0.53125 9.378906 -1.132812 8.890625 -1.84375 L 8.203125 -2.828125 Z M 5.109375 -0.671875 "/></g></g></g><g fill="#ffffff" fill-opacity="1"><g transform="translate(112.405299, 254.957142)"><g><path d="M 4.4375 -0.890625 L 1.609375 1.734375 L 0.875 0.9375 L 7.6875 -5.375 L 9.421875 -3.5 C 10.191406 -2.664062 10.601562 -1.898438 10.65625 -1.203125 C 10.707031 -0.503906 10.410156 0.140625 9.765625 0.734375 C 8.867188 1.566406 7.832031 1.671875 6.65625 1.046875 L 5.328125 5.734375 L 4.453125 4.796875 L 5.75 0.53125 Z M 5.125 -1.53125 L 6.125 -0.453125 C 6.644531 0.109375 7.132812 0.414062 7.59375 0.46875 C 8.0625 0.53125 8.515625 0.351562 8.953125 -0.0625 C 9.398438 -0.476562 9.601562 -0.910156 9.5625 -1.359375 C 9.519531 -1.804688 9.226562 -2.320312 8.6875 -2.90625 L 7.734375 -3.9375 Z M 5.125 -1.53125 "/></g></g></g><g fill="#ffffff" fill-opacity="1"><g transform="translate(122.122809, 264.818791)"><g><path d="M 4.984375 4.09375 L 0.984375 0.8125 L 6.875 -6.375 L 10.875 -3.09375 L 10.265625 -2.34375 L 7.109375 -4.9375 L 5.21875 -2.640625 L 8.1875 -0.203125 L 7.578125 0.546875 L 4.609375 -1.890625 L 2.4375 0.75 L 5.59375 3.34375 Z M 4.984375 4.09375 "/></g></g></g><g fill="#ffffff" fill-opacity="1"><g transform="translate(132.467115, 272.924765)"><g><path d="M 4.65625 2.71875 L 6.078125 -5.984375 L 6.046875 -6 C 5.765625 -5.394531 5.398438 -4.707031 4.953125 -3.9375 L 1.96875 1.15625 L 1.109375 0.640625 L 5.8125 -7.375 L 7.21875 -6.546875 L 5.875 1.546875 L 5.90625 1.578125 L 12.34375 -3.53125 L 13.75 -2.71875 L 9.046875 5.296875 L 8.109375 4.75 L 11.140625 -0.40625 C 11.484375 -1 11.882812 -1.628906 12.34375 -2.296875 L 12.296875 -2.328125 L 5.40625 3.171875 Z M 4.65625 2.71875 "/></g></g></g><g fill="#ffffff" fill-opacity="1"><g transform="translate(147.934199, 281.197184)"><g><path d="M 1.1875 0.484375 L 4.75 -8.109375 L 5.75 -7.6875 L 2.1875 0.90625 Z M 1.1875 0.484375 "/></g></g></g><g fill="#ffffff" fill-opacity="1"><g transform="translate(156.669003, 284.621283)"><g><path d="M 10.453125 -6.78125 L 8.859375 -0.984375 C 8.585938 0.046875 8.0625 0.769531 7.28125 1.1875 C 6.507812 1.601562 5.582031 1.660156 4.5 1.359375 C 3.414062 1.066406 2.660156 0.546875 2.234375 -0.203125 C 1.804688 -0.953125 1.734375 -1.84375 2.015625 -2.875 L 3.59375 -8.65625 L 4.640625 -8.375 L 3.046875 -2.53125 C 2.835938 -1.769531 2.878906 -1.128906 3.171875 -0.609375 C 3.472656 -0.0976562 4.019531 0.265625 4.8125 0.484375 C 5.570312 0.679688 6.210938 0.632812 6.734375 0.34375 C 7.253906 0.0507812 7.617188 -0.46875 7.828125 -1.21875 L 9.421875 -7.0625 Z M 10.453125 -6.78125 "/></g></g></g><g fill="#ffffff" fill-opacity="1"><g transform="translate(171.655499, 288.30352)"><g><path d="M 5.359375 0.53125 L 3.03125 -7.96875 L 2.984375 -7.96875 C 2.984375 -7.320312 2.9375 -6.550781 2.84375 -5.65625 L 2.265625 0.21875 L 1.28125 0.125 L 2.203125 -9.125 L 3.8125 -8.96875 L 5.96875 -1.03125 L 6.015625 -1.03125 L 9.734375 -8.375 L 11.359375 -8.21875 L 10.4375 1.03125 L 9.359375 0.921875 L 9.953125 -5.03125 C 10.015625 -5.71875 10.113281 -6.453125 10.25 -7.234375 L 10.203125 -7.25 L 6.234375 0.609375 Z M 5.359375 0.53125 "/></g></g></g><g fill="#ffffff" fill-opacity="1"><g transform="translate(189.158429, 289.354192)"><g/></g></g><g fill="#ffffff" fill-opacity="1"><g transform="translate(198.29119, 288.860398)"><g><path d="M 8.453125 -6.125 C 8.648438 -4.957031 8.578125 -3.945312 8.234375 -3.09375 C 7.890625 -2.238281 7.304688 -1.597656 6.484375 -1.171875 L 9.046875 0.734375 L 7.5 1 L 5.359375 -0.78125 L 5.03125 -0.703125 C 3.675781 -0.484375 2.5625 -0.722656 1.6875 -1.421875 C 0.820312 -2.128906 0.265625 -3.234375 0.015625 -4.734375 C -0.234375 -6.222656 -0.0625 -7.441406 0.53125 -8.390625 C 1.132812 -9.335938 2.117188 -9.921875 3.484375 -10.140625 C 4.796875 -10.359375 5.890625 -10.109375 6.765625 -9.390625 C 7.648438 -8.679688 8.210938 -7.59375 8.453125 -6.125 Z M 1.140625 -4.90625 C 1.347656 -3.664062 1.769531 -2.765625 2.40625 -2.203125 C 3.039062 -1.648438 3.863281 -1.457031 4.875 -1.625 C 5.882812 -1.800781 6.597656 -2.253906 7.015625 -2.984375 C 7.429688 -3.710938 7.535156 -4.695312 7.328125 -5.9375 C 7.117188 -7.164062 6.703125 -8.054688 6.078125 -8.609375 C 5.453125 -9.171875 4.640625 -9.363281 3.640625 -9.1875 C 2.617188 -9.019531 1.894531 -8.566406 1.46875 -7.828125 C 1.050781 -7.097656 0.941406 -6.125 1.140625 -4.90625 Z M 1.140625 -4.90625 "/></g></g></g><g fill="#ffffff" fill-opacity="1"><g transform="translate(214.028728, 285.737847)"><g><path d="M 4.890625 -11.453125 L 6.8125 -5.75 C 7.15625 -4.738281 7.117188 -3.84375 6.703125 -3.0625 C 6.296875 -2.289062 5.5625 -1.726562 4.5 -1.375 C 3.4375 -1.019531 2.515625 -1.03125 1.734375 -1.40625 C 0.960938 -1.789062 0.40625 -2.492188 0.0625 -3.515625 L -1.84375 -9.1875 L -0.828125 -9.53125 L 1.109375 -3.78125 C 1.359375 -3.039062 1.75 -2.539062 2.28125 -2.28125 C 2.8125 -2.019531 3.46875 -2.019531 4.25 -2.28125 C 4.988281 -2.53125 5.492188 -2.921875 5.765625 -3.453125 C 6.046875 -3.992188 6.0625 -4.628906 5.8125 -5.359375 L 3.875 -11.109375 Z M 4.890625 -11.453125 "/></g></g></g><g fill="#ffffff" fill-opacity="1"><g transform="translate(228.399351, 280.388065)"><g><path d="M 6.34375 -3.25 L 3.96875 -5.359375 L 0.640625 -3.640625 L 0.96875 -0.5 L 0 0 L -1 -9.96875 L -0.1875 -10.390625 L 7.328125 -3.765625 Z M 3.203125 -6.0625 L 0.9375 -8.140625 C 0.632812 -8.398438 0.300781 -8.722656 -0.0625 -9.109375 C 0.0390625 -8.710938 0.128906 -8.265625 0.203125 -7.765625 L 0.53125 -4.6875 Z M 3.203125 -6.0625 "/></g></g></g><g fill="#ffffff" fill-opacity="1"><g transform="translate(240.666763, 273.585806)"><g><path d="M 1.046875 -0.734375 L -4.28125 -8.359375 L -3.390625 -8.96875 L 1.375 -2.15625 L 4.734375 -4.515625 L 5.296875 -3.703125 Z M 1.046875 -0.734375 "/></g></g></g><g fill="#ffffff" fill-opacity="1"><g transform="translate(250.622528, 266.144446)"><g><path d="M 0.96875 -0.84375 L -5.171875 -7.828125 L -4.375 -8.546875 L 1.765625 -1.5625 Z M 0.96875 -0.84375 "/></g></g></g><g fill="#ffffff" fill-opacity="1"><g transform="translate(257.478601, 259.828331)"><g><path d="M 2.78125 -3.0625 L 2.0625 -2.265625 L -4.109375 -7.859375 L -6.09375 -5.671875 L -6.8125 -6.328125 L -2.125 -11.484375 L -1.40625 -10.828125 L -3.390625 -8.65625 Z M 2.78125 -3.0625 "/></g></g></g><g fill="#ffffff" fill-opacity="1"><g transform="translate(265.917874, 249.964959)"><g><path d="M -1.75 -5.640625 L -4.171875 -10.328125 L -3.515625 -11.28125 L -0.59375 -5.484375 L 2.375 -3.4375 L 1.765625 -2.546875 L -1.15625 -4.5625 L -7.65625 -5.28125 L -6.984375 -6.265625 Z M -1.75 -5.640625 "/></g></g></g><g clip-path="url(#374064cde8)"><g clip-path="url(#647faa7e61)"><g clip-path="url(#ec31ac0e20)"><path fill="#1a7b3b" d="M 156.953125 224.328125 L 158.992188 229.207031 C 159.070312 229.394531 159.199219 229.558594 159.359375 229.683594 C 159.519531 229.804688 159.710938 229.882812 159.914062 229.910156 L 165.160156 230.578125 L 161.148438 234.027344 C 160.996094 234.160156 160.878906 234.332031 160.8125 234.523438 C 160.746094 234.714844 160.730469 234.921875 160.765625 235.121094 L 161.75 240.320312 L 157.230469 237.570312 C 157.058594 237.464844 156.859375 237.40625 156.65625 237.402344 C 156.453125 237.394531 156.253906 237.445312 156.074219 237.542969 L 151.433594 240.085938 L 152.652344 234.9375 C 152.699219 234.738281 152.695312 234.53125 152.636719 234.335938 C 152.578125 234.144531 152.46875 233.96875 152.320312 233.828125 L 148.46875 230.199219 L 153.742188 229.769531 C 153.945312 229.753906 154.140625 229.683594 154.304688 229.566406 C 154.472656 229.453125 154.605469 229.292969 154.695312 229.109375 Z M 156.953125 224.328125 " fill-opacity="1" fill-rule="evenodd"/></g></g></g><g fill="#1a7b3b" fill-opacity="1"><g transform="translate(46.963513, 199.286033)"><g><path d="M 29.285156 -26.675781 C 30.203125 -31.941406 27.085938 -35.46875 20.851562 -35.621094 C 14.972656 -35.671875 11.34375 -32.707031 10.835938 -27.75 C 10.015625 -19.164062 21.15625 -16.046875 20.75 -9.046875 C 20.542969 -5.316406 18.449219 -3.117188 14.871094 -3.167969 C 11.039062 -3.269531 8.226562 -7.050781 9.863281 -13.238281 C 9.863281 -14.71875 6.03125 -15.230469 5.316406 -14.054688 C 2.914062 -7.050781 5.109375 0.410156 14.410156 0.460938 C 21.363281 0.511719 26.0625 -2.863281 26.421875 -9.199219 C 26.933594 -17.324219 16.046875 -20.953125 16.558594 -27.445312 C 16.761719 -30.867188 18.910156 -31.941406 20.75 -31.890625 C 23.304688 -31.890625 25.09375 -30.511719 24.785156 -26.832031 C 25.042969 -25.347656 28.773438 -25.144531 29.285156 -26.675781 Z M 29.285156 -26.675781 "/></g></g></g><g fill="#1a7b3b" fill-opacity="1"><g transform="translate(77.367702, 199.286033)"><g><path d="M 12.164062 -21.617188 C 6.386719 -20.648438 0.410156 -14.769531 -0.714844 -7.921875 C -1.636719 -2.199219 1.226562 0.511719 4.957031 0.460938 C 9.097656 0.359375 11.34375 -2.8125 13.132812 -5.929688 C 12.519531 -2.144531 13.902344 0.203125 16.355469 0.203125 C 21.15625 0.203125 25.144531 -4.703125 27.800781 -10.273438 C 28.109375 -10.886719 26.269531 -11.90625 26.011719 -11.292969 C 24.171875 -6.847656 20.699219 -3.371094 18.808594 -3.320312 C 17.632812 -3.320312 17.324219 -4.496094 17.886719 -7.050781 C 18.347656 -9.558594 19.265625 -12.625 19.828125 -14.566406 C 19.625 -15.636719 15.84375 -16.710938 14.921875 -15.535156 C 13.183594 -8.996094 8.074219 -1.226562 5.570312 -3.679688 C 4.394531 -4.855469 4.703125 -8.332031 6.285156 -11.652344 C 7.871094 -15.023438 10.679688 -17.632812 13.644531 -18.039062 C 15.996094 -18.347656 18.859375 -17.632812 20.953125 -15.945312 C 21.769531 -15.535156 23.867188 -17.886719 23.355469 -18.703125 C 20.492188 -21.617188 15.535156 -22.179688 12.164062 -21.617188 Z M 12.164062 -21.617188 "/></g></g></g><g fill="#1a7b3b" fill-opacity="1"><g transform="translate(103.070756, 199.286033)"><g><path d="M 10.117188 -34.140625 C 6.183594 -31.53125 3.117188 -24.582031 1.378906 -17.222656 C -0.816406 -7.921875 -0.816406 -0.359375 6.082031 0.460938 C 13.03125 1.226562 16.457031 -4.191406 19.421875 -10.273438 C 19.675781 -10.886719 17.886719 -11.90625 17.632812 -11.34375 C 15.585938 -7.050781 11.957031 -2.757812 8.226562 -3.066406 C 4.957031 -3.320312 4.546875 -7.105469 5.671875 -12.265625 C 12.367188 -15.023438 16.710938 -19.980469 18.398438 -25.757812 C 20.902344 -33.628906 15.078125 -37.460938 10.117188 -34.140625 Z M 13.644531 -31.328125 C 15.078125 -31.226562 14.566406 -27.953125 12.878906 -24.070312 C 11.5 -20.953125 9.148438 -17.734375 6.4375 -15.894531 C 7.308594 -19.164062 8.585938 -22.792969 9.453125 -24.992188 C 10.886719 -28.671875 12.265625 -31.378906 13.644531 -31.328125 Z M 13.644531 -31.328125 "/></g></g></g><g fill="#1a7b3b" fill-opacity="1"><g transform="translate(120.342393, 199.286033)"><g><path d="M 7.820312 -31.175781 C 4.90625 -26.625 2.199219 -18.753906 -0.0507812 -10.273438 C -1.890625 -3.117188 -3.117188 3.78125 -3.320312 7.71875 C -3.628906 12.316406 -2.25 14.972656 1.890625 15.023438 C 4.957031 15.078125 7.207031 13.644531 8.738281 11.089844 C 11.242188 6.898438 11.5 0.460938 7.820312 -3.730469 C 12.0625 -3.320312 16.917969 -3.425781 19.726562 -10.324219 C 19.929688 -10.886719 18.246094 -11.90625 17.9375 -11.292969 C 14.71875 -3.882812 7.972656 -5.980469 4.546875 -6.796875 C 4.957031 -8.636719 5.519531 -10.785156 5.929688 -12.0625 C 11.601562 -14.566406 17.9375 -19.980469 19.421875 -27.445312 C 21.207031 -35.671875 12.570312 -38.277344 7.820312 -31.175781 Z M 11.855469 -29.128906 C 13.746094 -32.554688 15.742188 -31.632812 15.023438 -28.464844 C 13.953125 -23.507812 10.679688 -18.652344 6.847656 -15.84375 C 8.382812 -21.105469 10.425781 -26.421875 11.855469 -29.128906 Z M 3.628906 -3.269531 C 6.746094 -0.5625 6.4375 4.804688 5.210938 8.433594 C 3.984375 11.90625 1.53125 12.417969 1.636719 8.585938 C 1.738281 5.621094 2.757812 0.511719 3.628906 -3.269531 Z M 3.628906 -3.269531 "/></g></g></g><g fill="#1a7b3b" fill-opacity="1"><g transform="translate(137.971729, 199.286033)"><g><path d="M 12.878906 -21.769531 C 6.847656 -21.667969 1.378906 -17.070312 -0.0507812 -10.015625 C -1.585938 -2.25 2.453125 0.511719 7.410156 0.511719 C 10.785156 0.511719 13.644531 -0.765625 15.945312 -3.015625 C 19.675781 -2.25 24.019531 -3.015625 27.339844 -10.273438 C 27.648438 -10.9375 25.859375 -11.90625 25.554688 -11.292969 C 23.355469 -6.132812 20.390625 -4.90625 17.886719 -5.160156 C 22.230469 -12.316406 21.976562 -21.925781 12.878906 -21.769531 Z M 12.214844 -18.140625 C 16.046875 -18.347656 15.484375 -12.675781 13.492188 -7.972656 C 12.0625 -8.277344 10.730469 -6.386719 11.703125 -4.90625 C 10.785156 -3.832031 9.503906 -3.117188 8.226562 -3.117188 C 5.058594 -3.117188 5.210938 -6.796875 5.824219 -9.964844 C 6.59375 -13.796875 9.199219 -17.988281 12.214844 -18.140625 Z M 12.214844 -18.140625 "/></g></g></g><g fill="#1a7b3b" fill-opacity="1"><g transform="translate(163.21487, 199.286033)"><g><path d="M 1.328125 -8.585938 C 3.371094 -12.570312 4.652344 -16.148438 5.570312 -19.472656 C 6.644531 -18.195312 8.738281 -16.507812 7.5625 -14.71875 C 5.519531 -11.703125 3.320312 -8.332031 3.320312 -5.058594 C 3.320312 -1.890625 5.265625 0.410156 9.25 0.460938 C 15.230469 0.511719 19.265625 -4.191406 21.925781 -10.273438 C 22.179688 -10.835938 20.441406 -11.90625 20.1875 -11.34375 C 17.425781 -5.367188 13.644531 -3.167969 11.242188 -3.167969 C 9.609375 -3.167969 9.046875 -4.292969 9.148438 -5.773438 C 9.300781 -8.175781 11.089844 -10.9375 13.03125 -13.390625 C 15.585938 -16.660156 10.476562 -19.878906 7.613281 -22.84375 C 9.453125 -30.101562 -0.664062 -27.289062 3.832031 -20.851562 C 2.605469 -16.40625 1.53125 -13.695312 -0.511719 -9.558594 C -0.867188 -8.890625 0.972656 -7.972656 1.328125 -8.585938 Z M 1.328125 -8.585938 "/></g></g></g><g fill="#1a7b3b" fill-opacity="1"><g transform="translate(183.041479, 199.286033)"><g><path d="M 20.699219 -34.753906 C 19.472656 -31.480469 17.324219 -25.09375 16.25 -21.207031 C 12.777344 -21.925781 7.050781 -21.105469 3.21875 -16.199219 C -1.992188 -9.710938 -2.554688 0.664062 5.058594 0.460938 C 9.097656 0.410156 11.703125 -2.863281 13.238281 -5.980469 C 12.726562 -2.144531 14.410156 0.253906 17.121094 0.203125 C 21.71875 0.152344 25.554688 -4.855469 28.058594 -10.273438 C 28.363281 -10.886719 26.574219 -11.90625 26.269531 -11.292969 C 24.582031 -7.257812 21.566406 -3.371094 19.574219 -3.320312 C 15.484375 -3.21875 23.457031 -26.113281 26.0625 -33.679688 C 26.113281 -35.109375 21.363281 -35.671875 20.699219 -34.753906 Z M 15.230469 -17.683594 C 14.410156 -14.515625 13.542969 -11.703125 12.726562 -9.863281 C 10.527344 -4.804688 7.460938 -2.25 5.824219 -3.527344 C 3.882812 -4.804688 5.316406 -10.324219 7.050781 -13.183594 C 9.351562 -17.019531 12.726562 -18.195312 15.230469 -17.683594 Z M 15.230469 -17.683594 "/></g></g></g><g fill="#1a7b3b" fill-opacity="1"><g transform="translate(218.708931, 199.286033)"><g><path d="M 10.273438 -27.394531 C 9.453125 -24.632812 9.761719 -21.875 10.988281 -18.703125 C 5.929688 -16.046875 3.371094 -12.367188 2.914062 -8.535156 C 2.351562 -4.039062 5.007812 0.410156 11.703125 0.410156 C 15.230469 0.410156 18.296875 -0.765625 20.75 -2.8125 C 21.515625 -1.941406 22.382812 -0.917969 23.253906 -0.152344 C 24.683594 1.074219 28.160156 -0.765625 26.832031 -1.992188 C 25.707031 -3.167969 24.785156 -4.191406 23.558594 -5.773438 C 25.347656 -8.023438 26.78125 -10.886719 26.933594 -14.464844 C 26.984375 -15.84375 24.070312 -16.457031 23.917969 -14.871094 C 23.609375 -12.726562 22.742188 -10.273438 21.261719 -8.433594 C 19.164062 -11.242188 17.324219 -14.359375 15.894531 -17.425781 C 19.164062 -19.214844 23.355469 -21.976562 24.171875 -25.65625 C 26.167969 -34.648438 12.777344 -35.671875 10.273438 -27.394531 Z M 14.71875 -26.726562 C 16.148438 -30.40625 20.59375 -30.101562 19.726562 -26.421875 C 19.164062 -23.917969 17.121094 -22.078125 14.617188 -20.648438 C 13.851562 -22.84375 14.054688 -24.941406 14.71875 -26.726562 Z M 12.570312 -15.28125 C 14.257812 -12.164062 16.097656 -8.789062 18.398438 -5.773438 C 16.761719 -4.191406 14.464844 -3.320312 12.113281 -3.320312 C 8.636719 -3.371094 7.359375 -6.03125 7.664062 -8.585938 C 7.921875 -11.039062 9.402344 -13.339844 12.570312 -15.28125 Z M 12.570312 -15.28125 "/></g></g></g><g fill="#1a7b3b" fill-opacity="1"><g transform="translate(248.346642, 199.286033)"><g/></g></g><g fill="#1a7b3b" fill-opacity="1"><g transform="translate(258.055556, 199.286033)"><g><path d="M 26.78125 -35.519531 C 21.363281 -35.824219 17.070312 -33.421875 13.695312 -29.640625 C 12.625 -31.429688 12.011719 -33.320312 11.855469 -34.648438 C 11.652344 -35.773438 8.945312 -35.621094 9.097656 -34.445312 C 9.199219 -32.246094 10.222656 -29.539062 11.703125 -27.238281 C 9.097656 -23.457031 7.511719 -18.859375 7.207031 -14.257812 C 6.59375 -5.058594 11.601562 0.714844 19.214844 0.511719 C 26.371094 0.304688 30.867188 -3.066406 34.191406 -10.273438 C 34.496094 -10.886719 32.707031 -11.957031 32.402344 -11.292969 C 29.640625 -5.367188 25.042969 -3.425781 21.617188 -3.269531 C 16.558594 -2.863281 12.878906 -6.132812 12.929688 -13.953125 C 12.929688 -16.863281 13.644531 -20.1875 14.972656 -23.152344 C 22.128906 -17.9375 31.378906 -20.238281 33.269531 -26.421875 C 34.90625 -31.277344 32.195312 -35.210938 26.78125 -35.519531 Z M 25.859375 -31.738281 C 28.058594 -31.632812 28.976562 -29.691406 28.007812 -27.597656 C 26.882812 -23.917969 20.699219 -23.101562 16.660156 -26.21875 C 18.960938 -29.589844 21.820312 -31.941406 25.859375 -31.738281 Z M 25.859375 -31.738281 "/></g></g></g><g fill="#1a7b3b" fill-opacity="1"><g transform="translate(290.146049, 199.286033)"><g><path d="M 12.878906 -21.769531 C 6.847656 -21.667969 1.378906 -17.070312 -0.0507812 -10.015625 C -1.585938 -2.25 2.453125 0.511719 7.410156 0.511719 C 10.785156 0.511719 13.644531 -0.765625 15.945312 -3.015625 C 19.675781 -2.25 24.019531 -3.015625 27.339844 -10.273438 C 27.648438 -10.9375 25.859375 -11.90625 25.554688 -11.292969 C 23.355469 -6.132812 20.390625 -4.90625 17.886719 -5.160156 C 22.230469 -12.316406 21.976562 -21.925781 12.878906 -21.769531 Z M 12.214844 -18.140625 C 16.046875 -18.347656 15.484375 -12.675781 13.492188 -7.972656 C 12.0625 -8.277344 10.730469 -6.386719 11.703125 -4.90625 C 10.785156 -3.832031 9.503906 -3.117188 8.226562 -3.117188 C 5.058594 -3.117188 5.210938 -6.796875 5.824219 -9.964844 C 6.59375 -13.796875 9.199219 -17.988281 12.214844 -18.140625 Z M 12.214844 -18.140625 "/></g></g></g><g fill="#1a7b3b" fill-opacity="1"><g transform="translate(315.38919, 199.286033)"><g><path d="M 4.292969 0.359375 C 5.824219 0.359375 7.105469 -0.917969 7.257812 -2.402344 C 7.359375 -3.933594 6.386719 -5.160156 4.703125 -5.160156 C 3.167969 -5.160156 1.839844 -3.933594 1.738281 -2.453125 C 1.636719 -0.917969 2.757812 0.359375 4.292969 0.359375 Z M 4.292969 0.359375 "/></g></g></g><g fill="#ffffff" fill-opacity="1"><g transform="translate(114.124543, 134.229855)"><g><path d="M 2.09375 -10.234375 C 3.269531 -9.316406 3.957031 -8.300781 4.15625 -7.1875 C 4.363281 -6.070312 4.050781 -4.984375 3.21875 -3.921875 C 2.382812 -2.847656 1.40625 -2.273438 0.28125 -2.203125 C -0.832031 -2.128906 -1.988281 -2.5625 -3.1875 -3.5 C -4.382812 -4.4375 -5.078125 -5.453125 -5.265625 -6.546875 C -5.460938 -7.648438 -5.140625 -8.742188 -4.296875 -9.828125 C -3.472656 -10.878906 -2.492188 -11.4375 -1.359375 -11.5 C -0.222656 -11.570312 0.925781 -11.148438 2.09375 -10.234375 Z M -2.484375 -4.40625 C -1.484375 -3.625 -0.5625 -3.242188 0.28125 -3.265625 C 1.125 -3.285156 1.859375 -3.695312 2.484375 -4.5 C 3.117188 -5.3125 3.34375 -6.125 3.15625 -6.9375 C 2.976562 -7.75 2.390625 -8.546875 1.390625 -9.328125 C 0.410156 -10.097656 -0.492188 -10.472656 -1.328125 -10.453125 C -2.171875 -10.441406 -2.90625 -10.035156 -3.53125 -9.234375 C -4.164062 -8.421875 -4.390625 -7.601562 -4.203125 -6.78125 C -4.023438 -5.957031 -3.453125 -5.164062 -2.484375 -4.40625 Z M -2.484375 -4.40625 "/></g></g></g><g fill="#ffffff" fill-opacity="1"><g transform="translate(125.152054, 121.284695)"><g><path d="M -0.796875 -4.4375 L 1.765625 -1.5625 L 0.953125 -0.859375 L -5.234375 -7.796875 L -3.328125 -9.484375 C -2.484375 -10.234375 -1.707031 -10.628906 -1 -10.671875 C -0.300781 -10.710938 0.335938 -10.40625 0.921875 -9.75 C 1.734375 -8.832031 1.816406 -7.796875 1.171875 -6.640625 L 5.84375 -5.203125 L 4.890625 -4.359375 L 0.640625 -5.734375 Z M -1.421875 -5.140625 L -0.3125 -6.140625 C 0.25 -6.640625 0.5625 -7.117188 0.625 -7.578125 C 0.6875 -8.046875 0.519531 -8.503906 0.125 -8.953125 C -0.289062 -9.410156 -0.722656 -9.625 -1.171875 -9.59375 C -1.617188 -9.5625 -2.140625 -9.273438 -2.734375 -8.734375 L -3.78125 -7.796875 Z M -1.421875 -5.140625 "/></g></g></g><g fill="#ffffff" fill-opacity="1"><g transform="translate(136.657891, 111.761385)"><g><path d="M 2 -6.96875 L 4.6875 -8.625 L 7.0625 -4.765625 C 6.726562 -4.367188 6.363281 -4.003906 5.96875 -3.671875 C 5.582031 -3.335938 5.101562 -2.992188 4.53125 -2.640625 C 3.332031 -1.898438 2.179688 -1.679688 1.078125 -1.984375 C -0.0234375 -2.296875 -0.972656 -3.09375 -1.765625 -4.375 C -2.273438 -5.195312 -2.554688 -6.019531 -2.609375 -6.84375 C -2.660156 -7.664062 -2.472656 -8.425781 -2.046875 -9.125 C -1.617188 -9.832031 -0.988281 -10.441406 -0.15625 -10.953125 C 0.675781 -11.472656 1.550781 -11.804688 2.46875 -11.953125 L 2.625 -10.9375 C 1.71875 -10.789062 0.9375 -10.515625 0.28125 -10.109375 C -0.6875 -9.515625 -1.257812 -8.765625 -1.4375 -7.859375 C -1.625 -6.953125 -1.40625 -5.988281 -0.78125 -4.96875 C -0.125 -3.90625 0.632812 -3.253906 1.5 -3.015625 C 2.363281 -2.785156 3.296875 -2.976562 4.296875 -3.59375 C 4.847656 -3.9375 5.34375 -4.335938 5.78125 -4.796875 L 4.28125 -7.234375 L 2.515625 -6.140625 Z M 2 -6.96875 "/></g></g></g><g fill="#ffffff" fill-opacity="1"><g transform="translate(150.916705, 103.747873)"><g><path d="M 6.625 -2.609375 L 4.46875 -4.9375 L 1 -3.578125 L 1.015625 -0.40625 L 0 0 L 0 -10.015625 L 0.84375 -10.359375 L 7.65625 -3.015625 Z M 3.796875 -5.703125 L 1.734375 -8.015625 C 1.460938 -8.296875 1.164062 -8.65625 0.84375 -9.09375 C 0.894531 -8.664062 0.929688 -8.203125 0.953125 -7.703125 L 1 -4.609375 Z M 3.796875 -5.703125 "/></g></g></g><g fill="#ffffff" fill-opacity="1"><g transform="translate(165.167141, 98.706627)"><g><path d="M 8.359375 -1.671875 L 7.15625 -1.4375 L 0.640625 -8.078125 L 0.59375 -8.0625 C 0.84375 -7.1875 1.046875 -6.375 1.203125 -5.625 L 2.234375 -0.453125 L 1.25 -0.25 L -0.578125 -9.359375 L 0.625 -9.59375 L 7.125 -2.984375 L 7.171875 -3 C 7.140625 -3.101562 7.046875 -3.457031 6.890625 -4.0625 C 6.742188 -4.664062 6.648438 -5.097656 6.609375 -5.359375 L 5.5625 -10.59375 L 6.53125 -10.78125 Z M 8.359375 -1.671875 "/></g></g></g><g fill="#ffffff" fill-opacity="1"><g transform="translate(181.757327, 96.1711)"><g><path d="M 1.28125 -0.0625 L 0.875 -9.34375 L 1.953125 -9.390625 L 2.359375 -0.109375 Z M 1.28125 -0.0625 "/></g></g></g><g fill="#ffffff" fill-opacity="1"><g transform="translate(192.408676, 96.044278)"><g><path d="M 6.078125 -7.875 C 5.066406 -7.976562 4.226562 -7.722656 3.5625 -7.109375 C 2.90625 -6.492188 2.519531 -5.59375 2.40625 -4.40625 C 2.28125 -3.207031 2.46875 -2.25 2.96875 -1.53125 C 3.46875 -0.8125 4.242188 -0.398438 5.296875 -0.296875 C 5.941406 -0.234375 6.695312 -0.28125 7.5625 -0.4375 L 7.46875 0.515625 C 6.789062 0.691406 5.976562 0.734375 5.03125 0.640625 C 3.675781 0.503906 2.671875 -0.0078125 2.015625 -0.90625 C 1.359375 -1.8125 1.109375 -3.023438 1.265625 -4.546875 C 1.359375 -5.503906 1.617188 -6.320312 2.046875 -7 C 2.472656 -7.675781 3.039062 -8.175781 3.75 -8.5 C 4.46875 -8.820312 5.28125 -8.9375 6.1875 -8.84375 C 7.164062 -8.75 7.992188 -8.488281 8.671875 -8.0625 L 8.125 -7.1875 C 7.46875 -7.570312 6.785156 -7.800781 6.078125 -7.875 Z M 6.078125 -7.875 "/></g></g></g><g fill="#ffffff" fill-opacity="1"><g transform="translate(207.475068, 98.251248)"><g/></g></g><g fill="#ffffff" fill-opacity="1"><g transform="translate(217.504799, 101.123023)"><g><path d="M 6.96875 0.140625 C 6.664062 0.898438 6.148438 1.378906 5.421875 1.578125 C 4.703125 1.773438 3.875 1.6875 2.9375 1.3125 C 1.914062 0.894531 1.179688 0.445312 0.734375 -0.03125 L 1.125 -1 C 1.414062 -0.695312 1.75 -0.414062 2.125 -0.15625 C 2.507812 0.09375 2.90625 0.300781 3.3125 0.46875 C 3.976562 0.726562 4.53125 0.800781 4.96875 0.6875 C 5.414062 0.570312 5.734375 0.285156 5.921875 -0.171875 C 6.035156 -0.472656 6.070312 -0.738281 6.03125 -0.96875 C 6 -1.207031 5.867188 -1.460938 5.640625 -1.734375 C 5.421875 -2.015625 5.066406 -2.375 4.578125 -2.8125 C 3.890625 -3.414062 3.453125 -3.984375 3.265625 -4.515625 C 3.085938 -5.054688 3.125 -5.640625 3.375 -6.265625 C 3.644531 -6.929688 4.109375 -7.359375 4.765625 -7.546875 C 5.421875 -7.734375 6.160156 -7.664062 6.984375 -7.34375 C 7.835938 -7 8.5625 -6.53125 9.15625 -5.9375 L 8.484375 -5.171875 C 7.898438 -5.753906 7.273438 -6.179688 6.609375 -6.453125 C 6.078125 -6.671875 5.613281 -6.722656 5.21875 -6.609375 C 4.820312 -6.503906 4.546875 -6.25 4.390625 -5.84375 C 4.265625 -5.550781 4.222656 -5.285156 4.265625 -5.046875 C 4.304688 -4.804688 4.421875 -4.554688 4.609375 -4.296875 C 4.804688 -4.035156 5.132812 -3.703125 5.59375 -3.296875 C 6.375 -2.609375 6.859375 -2.007812 7.046875 -1.5 C 7.234375 -0.988281 7.207031 -0.441406 6.96875 0.140625 Z M 6.96875 0.140625 "/></g></g></g><g fill="#ffffff" fill-opacity="1"><g transform="translate(230.352798, 106.817283)"><g><path d="M 7.078125 4.375 L 6.171875 3.8125 L 8.46875 0.09375 L 4.296875 -2.484375 L 2 1.234375 L 1.09375 0.671875 L 5.984375 -7.234375 L 6.890625 -6.671875 L 4.8125 -3.3125 L 8.984375 -0.734375 L 11.0625 -4.09375 L 11.96875 -3.53125 Z M 7.078125 4.375 "/></g></g></g><g fill="#ffffff" fill-opacity="1"><g transform="translate(244.002924, 115.983781)"><g><path d="M 10.03125 2.875 C 9.03125 3.976562 7.96875 4.585938 6.84375 4.703125 C 5.71875 4.828125 4.660156 4.429688 3.671875 3.515625 C 2.660156 2.597656 2.160156 1.578125 2.171875 0.453125 C 2.191406 -0.671875 2.71875 -1.796875 3.75 -2.921875 C 4.769531 -4.035156 5.832031 -4.644531 6.9375 -4.75 C 8.050781 -4.863281 9.113281 -4.457031 10.125 -3.53125 C 11.113281 -2.625 11.597656 -1.601562 11.578125 -0.46875 C 11.554688 0.664062 11.039062 1.78125 10.03125 2.875 Z M 4.5625 -2.125 C 3.71875 -1.195312 3.269531 -0.3125 3.21875 0.53125 C 3.175781 1.375 3.535156 2.140625 4.296875 2.828125 C 5.054688 3.523438 5.847656 3.804688 6.671875 3.671875 C 7.503906 3.546875 8.34375 3.019531 9.1875 2.09375 C 10.03125 1.175781 10.476562 0.300781 10.53125 -0.53125 C 10.582031 -1.363281 10.226562 -2.125 9.46875 -2.8125 C 8.707031 -3.507812 7.910156 -3.796875 7.078125 -3.671875 C 6.242188 -3.554688 5.40625 -3.039062 4.5625 -2.125 Z M 4.5625 -2.125 "/></g></g></g><g fill="#ffffff" fill-opacity="1"><g transform="translate(256.057054, 127.983358)"><g><path d="M 9.578125 1.71875 C 8.828125 2.28125 8.054688 2.457031 7.265625 2.25 C 6.484375 2.050781 5.726562 1.476562 5 0.53125 L 4.34375 -0.34375 L 1.4375 1.875 L 0.78125 1.015625 L 8.171875 -4.625 L 9.625 -2.703125 C 11.03125 -0.859375 11.015625 0.613281 9.578125 1.71875 Z M 5.078125 -0.90625 L 5.65625 -0.140625 C 6.238281 0.617188 6.785156 1.078125 7.296875 1.234375 C 7.804688 1.390625 8.328125 1.257812 8.859375 0.84375 C 9.347656 0.476562 9.585938 0.0390625 9.578125 -0.46875 C 9.578125 -0.976562 9.316406 -1.570312 8.796875 -2.25 L 8.078125 -3.203125 Z M 5.078125 -0.90625 "/></g></g></g><g clip-path="url(#6a49145311)"><g clip-path="url(#fd28dde3d4)"><g clip-path="url(#416f6aadb7)"><path fill="#1a7b3b" d="M 221.972656 132.199219 C 209.792969 127.78125 192.640625 129.65625 188.171875 143.703125 C 187.898438 144.558594 187.675781 145.445312 187.5 146.351562 C 187.320312 145.445312 187.09375 144.5625 186.816406 143.703125 C 182.289062 129.675781 165.132812 127.867188 152.96875 132.335938 C 152.363281 132.558594 152.242188 133.339844 152.746094 133.742188 C 162.253906 141.316406 161.003906 162.039062 184.097656 153.011719 C 180.464844 141.804688 173.050781 134.867188 160.296875 133.964844 C 177.296875 133.855469 186.441406 141.777344 187.253906 158.207031 C 187.261719 158.355469 187.425781 158.402344 187.523438 158.335938 C 187.621094 158.402344 187.78125 158.355469 187.789062 158.207031 C 188.539062 141.769531 197.648438 133.816406 214.652344 133.859375 C 201.902344 134.8125 194.515625 141.777344 190.925781 153 C 214.054688 161.9375 212.722656 141.214844 222.203125 133.605469 C 222.707031 133.203125 222.582031 132.417969 221.972656 132.199219 " fill-opacity="1" fill-rule="evenodd"/></g></g></g><g clip-path="url(#bf230eb45c)"><g clip-path="url(#1cfc729234)"><g clip-path="url(#7ecb2aa8ab)"><path fill="#1a7b3b" d="M 187.679688 224.328125 L 189.71875 229.207031 C 189.796875 229.394531 189.925781 229.558594 190.085938 229.683594 C 190.246094 229.804688 190.4375 229.882812 190.640625 229.910156 L 195.886719 230.578125 L 191.875 234.027344 C 191.722656 234.160156 191.605469 234.332031 191.539062 234.523438 C 191.472656 234.714844 191.457031 234.921875 191.492188 235.121094 L 192.476562 240.320312 L 187.957031 237.570312 C 187.785156 237.464844 187.585938 237.40625 187.382812 237.402344 C 187.179688 237.394531 186.980469 237.445312 186.800781 237.542969 L 182.160156 240.085938 L 183.378906 234.9375 C 183.425781 234.738281 183.421875 234.53125 183.363281 234.335938 C 183.304688 234.144531 183.195312 233.96875 183.046875 233.828125 L 179.195312 230.199219 L 184.46875 229.769531 C 184.671875 229.753906 184.867188 229.683594 185.03125 229.566406 C 185.199219 229.453125 185.332031 229.292969 185.421875 229.109375 Z M 187.679688 224.328125 " fill-opacity="1" fill-rule="evenodd"/></g></g></g><g clip-path="url(#c5d7406568)"><g clip-path="url(#779dcb6aaa)"><g clip-path="url(#424598ca6c)"><path fill="#1a7b3b" d="M 218.710938 224.328125 L 220.75 229.207031 C 220.828125 229.394531 220.953125 229.558594 221.117188 229.683594 C 221.277344 229.804688 221.46875 229.882812 221.671875 229.910156 L 226.917969 230.578125 L 222.90625 234.027344 C 222.75 234.160156 222.636719 234.332031 222.566406 234.523438 C 222.5 234.714844 222.484375 234.921875 222.523438 235.121094 L 223.507812 240.320312 L 218.988281 237.570312 C 218.8125 237.464844 218.617188 237.40625 218.414062 237.402344 C 218.210938 237.394531 218.007812 237.445312 217.832031 237.542969 L 213.191406 240.085938 L 214.410156 234.9375 C 214.457031 234.738281 214.449219 234.53125 214.390625 234.335938 C 214.332031 234.144531 214.226562 233.96875 214.078125 233.828125 L 210.226562 230.199219 L 215.5 229.769531 C 215.703125 229.753906 215.894531 229.683594 216.0625 229.566406 C 216.230469 229.453125 216.363281 229.292969 216.449219 229.109375 Z M 218.710938 224.328125 " fill-opacity="1" fill-rule="evenodd"/></g></g></g><path stroke-linecap="butt" transform="matrix(0.75, 0, 0, 0.75, 39.350184, 220.114733)" fill="none" stroke-linejoin="miter" d="M 0.00183833 0.998065 L 105.533095 0.998065 " stroke="#1a7b3b" stroke-width="2" stroke-opacity="1" stroke-miterlimit="4"/><path stroke-linecap="butt" transform="matrix(0.75, 0.000000000000000202, -0.000000000000000202, 0.75, 256.525504, 153.38526)" fill="none" stroke-linejoin="miter" d="M 0.00245239 1.001946 L 105.533709 1.001946 " stroke="#8dc63f" stroke-width="2" stroke-opacity="1" stroke-miterlimit="4"/><path stroke-linecap="butt" transform="matrix(0.75, 0, 0, 0.75, 256.525504, 220.114733)" fill="none" stroke-linejoin="miter" d="M 0.00245239 0.998065 L 105.533709 0.998065 " stroke="#8dc63f" stroke-width="2" stroke-opacity="1" stroke-miterlimit="4"/></svg>